<svg xmlns="http://www.w3.org/2000/svg" viewBox="0 0 756.82 170.89"><defs></defs><g id="Layer_2" data-name="Layer 2"><g id="Layer_1-2" data-name="Layer 1"><path class="cls-1" d="M528.07,84.2c-48.34,4.17-94.92.47-141.36-3.91C432.17,89.25,479,92,528.07,84.2Z"/><path class="cls-1" d="M274.25,88.81c29.89,1.87,59.94,3,91.12-4.39C335.09,85.31,304.6,87.72,274.25,88.81Z"/><path class="cls-1" d="M227.2,76.86c23.52,4.65,48.2,1.31,73.17-4C275.71,76,251.52,76,227.2,76.86Z"/><path class="cls-1" d="M377.68,14.76c8.6-2.6,16.95-5.23,26.37-7.18a180.74,180.74,0,0,1,69.25-.76c3.86.69,4.39,1.59.93,3-2,.81-4.46,1.55-4.67,4.11C483,8.38,497,4.93,513.34,3c17.17-2,31.4-.42,45.3,1.93,2.16-1.53-.29-1.82-1.8-2.19-13-3.19-27.9-3.39-43.91-1.64-5.5.6-11.59,1.16-16.14,2.47-11.31,3.24-19.79,1.8-29.24.1-25.29-4.53-64.15-.77-85.91,8.08C379.68,12.55,377.26,13.28,377.68,14.76Z"/><path class="cls-1" d="M394.89,32.3c25.56-4.44,50-8.31,75.76-6.61-.62,2.2-6.77,3.33-7.14,5.63,7-.8,8.72-4.41,15.74-4.6,6.33-.17,10.89,1.49,18,2.17-1.69-3.13-9.27-3-13.94-4.63,19.78-6.71,39.73-12.78,65.78-13.81,3-.12,8.6.31,8.46-1.36-.13-1.51-5.84-.88-9.49-.69A218.05,218.05,0,0,0,488.77,20C481,22.56,474,23.66,464.06,23.44c-22.49-.51-44.49,2.3-65.64,6.75a12.92,12.92,0,0,0-2.27.72C395.77,31.07,395.73,31.34,394.89,32.3Z"/><path class="cls-1" d="M340.11,15.43c-4.81-1.95-11.41-2-17.53-1.58-28.95,1.89-53.06,7.38-70.12,17.46A32.71,32.71,0,0,1,241.89,35c-11.24,2.29-21.07,5.32-28,9.74,14.5-4.2,28.06-8.76,45.76-10.69,18.21-2,33.27-.22,48.69,2-2.41-4.42-19.23-5.63-52.24-3.82,9-6.2,22.52-10,37.43-13.06A194.49,194.49,0,0,1,340.11,15.43Z"/><path class="cls-1" d="M364.22,41.7c7-1.4,12.38-3.44,16.44-6C373.76,37.12,367.42,38.76,364.22,41.7Z"/><path class="cls-1" d="M564.56,119.9c-15.12-.47-30.09,3.48-45.13,5.22-43.91,5.07-87.81,9.7-131.64,12.32-97.24,5.83-194.13,9.46-290.47,10.06-2.6,0-5.31-.4-10,2.06,31.85-.31,61.75-.44,91.73-.95,18.58-.31,37.32-1.32,55.95-1.81,14.45-.38,14.42-.23,9.28,8.83,7.52-12,22.45-10.45,35.92-10.75a2499.52,2499.52,0,0,0,265.3-20.46c6.49-.84,13.37-1.41,19-4.64Z"/><path class="cls-1" d="M118,169.49c105,3.59,211.27.18,318.66-9.13C330,165.6,223,172.8,118,169.49Z"/><path class="cls-1" d="M591.05,114.09c-21.94,14.81-50.38,17.24-77.54,20.83-77.68,10.27-154.67,12.85-231.44,13.87-6.2.08-11.87-1.73-18.76-.13,2.14,2.11,6,1.89,9.24,1.88,91.26-.52,182.71-3.23,275.25-18.64,15-2.49,29-6.27,40.87-13.3,1.88-1.11,3.29-2.43,3.36-4Z"/><path class="cls-1" d="M669.17,116C635.61,134.14,595.91,135.4,558,141.28c-18.89,2.93-37.9,4-59.48,5.82,4.75,2.89,8.75,2.22,12.23,1.87,41.87-4.27,83.73-8.73,124.9-18.19C648.73,127.78,661.33,124.09,669.17,116Z"/><path class="cls-1" d="M587.68,123.2c24.23-2.15,48.09-7.26,69.3-15.7,22.51-9,23.89-22.45,5.53-32.18a33.94,33.94,0,0,0,2.89,3.52c11.5,11,4.21,22.65-17.56,29.66-19.52,6.29-40.38,9.07-60,14.82Z"/><path class="cls-1" d="M468.69,110.1c3.88.64,7.72,1.36,11.66,1.9,4.26.59,8.67,1.43,8,4.59S483,121,478.62,122.1c-11.85,2.91-23.75,3.17-35.63,3.68a45.5,45.5,0,0,0-12.16,1.73c18.28,0,36.7,1.53,54.74-5.65,9.29-3.7,9.16-8.43.49-11.21C482.12,109.38,477.39,109,468.69,110.1Z"/><path class="cls-1" d="M732.74,121.21c11.49-2.12,21.43-5.57,23.92-13C758.31,103.3,747,97,734.38,95c0,2.8,3.81,3.15,6.26,4.06,16.49,6.11,16,11.48-1.91,19.38C736.71,119.35,734.74,120.29,732.74,121.21Z"/><path class="cls-1" d="M592,114.6c5.15-3.56,4.29-7.13,1.4-10-7.32-7.31-19.47-9.77-34.32-9.22,14.19,4.12,35.26,3.74,31.94,18.73Z"/><path class="cls-1" d="M29.71,100.64C41.33,88.29,57.3,80.23,74,73.12c37.17-15.82,76.47-25.34,117-31,3.59-.5,7.33-1.16,12.12.61C140,51.86,79.56,64.12,31,101.48Z"/><path class="cls-1" d="M115.71,141.47c-26.2.14-52.71,4.94-78.6,2a61.09,61.09,0,0,1-27.3-9.73C-4.26,124.47-3,109.87,12.32,98c1.56,1.6-.6,2.67-1.48,3.76-15.9,19.57-1.46,32.4,17.6,37.22,20.35,5.14,42,2.68,63.39,1.13C100.07,139.48,108.13,139.24,115.71,141.47Z"/><path class="cls-1" d="M157.05,131.87c-31-4.49-63.28,5.07-94,1.28C94.37,133.64,126.76,124.45,157.05,131.87Z"/><path class="cls-1" d="M31,101.48c-8.29,9.14-15.22,18.35-5.56,28.47-10.77-6.79-9-17.55,4.26-29.31Z"/><path class="cls-1" d="M619.27,48.94l23.47,8.25,1.58-1.1c-6.7-3.41-14.85-5.87-23.71-7.87Z"/></g></g></svg>