<svg xmlns="http://www.w3.org/2000/svg" viewBox="0 0 350.77 285.86"><defs><style>.cls-1{fill:#e5e5e5;}</style></defs><g id="Layer_2" data-name="Layer 2"><g id="Layer_1-2" data-name="Layer 1"><path class="cls-1" d="M9.62,285.86c-2.81,0-5.11-1.35-6.92-4.06A14,14,0,0,1,0,274.13V89.27q0-5.1,5.26-8.71T15,77H72.74q4.8,0,10.07,3.61t5.26,8.71V195.68q0,4.22-4.06,8.57t-8.26,4.36H30.36q-3,0-6.91,3.76t-3.91,6.76v55c0,2.41-1,5-3,7.67S12.22,285.86,9.62,285.86ZM19.84,143.08A11,11,0,0,0,23,150.29a9.53,9.53,0,0,0,7.37,3.61H57.71a9.53,9.53,0,0,0,7.37-3.61,11,11,0,0,0,3.15-7.21,10.83,10.83,0,0,0-4-8.57A13.8,13.8,0,0,0,55,131.06H33.06a13.74,13.74,0,0,0-9.16,3.45A10.81,10.81,0,0,0,19.84,143.08Z"/><path class="cls-1" d="M96.79,207.71a22.4,22.4,0,0,1-6.47-4.66A9.8,9.8,0,0,1,87.17,196V89.27q0-5.1,5.26-8.71T102.2,77h57.71q4.8,0,10.07,3.61t5.26,8.71V196q0,4.22-4.06,8.27t-8.26,4.06H99.49a4.91,4.91,0,0,1-1.2-.3A4.94,4.94,0,0,0,96.79,207.71ZM107,143.08a10.77,10.77,0,0,0,3.15,7.36,9.69,9.69,0,0,0,7.37,3.46h27.35a9.67,9.67,0,0,0,7.36-3.46,10.74,10.74,0,0,0,3.16-7.36,10.39,10.39,0,0,0-4.06-8.42,14.13,14.13,0,0,0-9.16-3.3h-22a14.15,14.15,0,0,0-9.17,3.3A10.41,10.41,0,0,0,107,143.08Z"/><path class="cls-1" d="M254,208.31a8.87,8.87,0,0,1-6.92-3.61,11.65,11.65,0,0,1-3-7.52v-55q0-4.52-4.81-7.67t-8.72-3.15H208.6a14.42,14.42,0,0,0-4.21.75,16,16,0,0,0-4.36,2.1,15.44,15.44,0,0,0-3.45,3.31,6.54,6.54,0,0,0-1.51,4.06v55a13.21,13.21,0,0,1-2.85,7.82,8.34,8.34,0,0,1-13.83.45,11.71,11.71,0,0,1-2.85-7.67V89.27q0-5.1,5.26-8.71T190.57,77h57.71q4.8,0,10.07,3.61t5.26,8.71V196.58a13.36,13.36,0,0,1-2.71,8A8.19,8.19,0,0,1,254,208.31Z"/><path class="cls-1" d="M341.15,0a8.2,8.2,0,0,1,6.92,3.76,13.43,13.43,0,0,1,2.7,8V196q0,4.22-4,8.27t-8.27,4.06H275q-4.21,0-8.27-4.06T262.7,196V89.27a8.28,8.28,0,0,1,1.5-4.65A18,18,0,0,1,268,80.56a20,20,0,0,1,4.81-2.86,13,13,0,0,1,5-1h44.19a4.53,4.53,0,0,0,2.7-1.2,26.38,26.38,0,0,0,3-2.86,20.13,20.13,0,0,0,2.55-3.46,6.34,6.34,0,0,0,1.05-3v-55a11.92,11.92,0,0,1,2.86-7.51A8.67,8.67,0,0,1,341.15,0ZM282.54,143.08a10.74,10.74,0,0,0,3.16,7.36,9.66,9.66,0,0,0,7.36,3.46h27.35a9.69,9.69,0,0,0,7.37-3.46,10.78,10.78,0,0,0,3.16-7.36,10.42,10.42,0,0,0-4.06-8.42,14.17,14.17,0,0,0-9.17-3.3H295.77a14.14,14.14,0,0,0-9.17,3.3A10.39,10.39,0,0,0,282.54,143.08Z"/></g></g></svg>